<svg width="160" height="160" viewBox="0 0 160 160" fill="none" xmlns="http://www.w3.org/2000/svg">
  <defs>
    <linearGradient id="spear-pole-core" x1="76" y1="130" x2="84" y2="38" gradientUnits="userSpaceOnUse">
      <stop stop-color="#3F2C1A"/>
      <stop offset="0.54" stop-color="#5D4229"/>
      <stop offset="1" stop-color="#7A5C3D"/>
    </linearGradient>
    <linearGradient id="spear-pole-highlight" x1="80" y1="126" x2="82.5" y2="46" gradientUnits="userSpaceOnUse">
      <stop stop-color="#7A5C3D" stop-opacity="0.2"/>
      <stop offset="0.45" stop-color="#A57D56" stop-opacity="0.72"/>
      <stop offset="1" stop-color="#D1B08C" stop-opacity="0.85"/>
    </linearGradient>
    <linearGradient id="spear-head-fill" x1="77" y1="47" x2="93" y2="23" gradientUnits="userSpaceOnUse">
      <stop stop-color="#1B2229"/>
      <stop offset="0.52" stop-color="#5E7484"/>
      <stop offset="1" stop-color="#A8BBC8"/>
    </linearGradient>
    <linearGradient id="spear-hook-metal" x1="84" y1="51" x2="103" y2="76" gradientUnits="userSpaceOnUse">
      <stop stop-color="#27323B"/>
      <stop offset="0.6" stop-color="#5E7484"/>
      <stop offset="1" stop-color="#A8BBC8"/>
    </linearGradient>
    <linearGradient id="spear-hook-glow" x1="85" y1="52" x2="99" y2="69" gradientUnits="userSpaceOnUse">
      <stop stop-color="#CAA46A" stop-opacity="0.38"/>
      <stop offset="0.52" stop-color="#CAA46A" stop-opacity="0.86"/>
      <stop offset="1" stop-color="#E3C489" stop-opacity="0.62"/>
    </linearGradient>
    <filter id="spear-shadow" x="17" y="8" width="126" height="146" filterUnits="userSpaceOnUse" color-interpolation-filters="sRGB">
      <feDropShadow dx="0" dy="8" stdDeviation="6" flood-color="#2B1C11" flood-opacity="0.24"/>
    </filter>
  </defs>

  <g filter="url(#spear-shadow)" transform="rotate(-33 80 82)">
    <path d="M80 130L80 46" stroke="url(#spear-pole-core)" stroke-width="8" stroke-linecap="round"/>
    <path d="M81.4 127L81.4 49" stroke="url(#spear-pole-highlight)" stroke-width="2" stroke-linecap="round"/>

    <path d="M80 23L86.6 45L73.8 45L80 23Z" fill="url(#spear-head-fill)" stroke="#1B2229" stroke-width="2.2" stroke-linejoin="round"/>
    <path d="M80 27.5L83.7 44" stroke="#A8BBC8" stroke-opacity="0.82" stroke-width="1.4" stroke-linecap="round"/>
    <path d="M80 27.5L76.3 44" stroke="#5E7484" stroke-opacity="0.76" stroke-width="1.1" stroke-linecap="round"/>

    <path d="M80 49L84.5 45.2L84.2 54.2L80 57.6L75.8 54.2L75.5 45.2L80 49Z" fill="#5E7484" fill-opacity="0.45"/>

    <path d="M80 50C88.5 54 93.8 60 94.6 66.2C95.2 71.2 91.8 74.6 86.4 73.8" stroke="url(#spear-hook-metal)" stroke-width="3.3" stroke-linecap="round" stroke-linejoin="round"/>
    <path d="M80.8 50.8C87.2 54.2 91.2 59.2 92 64.2C92.6 67.9 90.4 70.4 86.8 70.1" stroke="url(#spear-hook-glow)" stroke-width="1.45" stroke-linecap="round" stroke-linejoin="round"/>
    <path d="M86.4 73.8L90.3 69.8" stroke="#A8BBC8" stroke-width="2.1" stroke-linecap="round"/>

    <path d="M80 128.4L80 135.2" stroke="#3F2C1A" stroke-width="6" stroke-linecap="round"/>
    <path d="M77.2 133.8H82.8" stroke="#7A5C3D" stroke-width="1.6" stroke-linecap="round"/>

    <path d="M80 104.2L76.8 110.2L71.6 114.6" stroke="#C84C38" stroke-width="1.8" stroke-linecap="round" stroke-linejoin="round"/>
    <path d="M78.8 104.4L74.2 112.4L67.8 118" stroke="#8C2620" stroke-width="1.15" stroke-linecap="round" stroke-linejoin="round"/>
    <path d="M81.6 104.3L79.4 109.4L75.8 113.6" stroke="#D46D5F" stroke-width="1.25" stroke-linecap="round" stroke-linejoin="round"/>

    <path d="M80 91.6L80 100.6" stroke="#7A5C3D" stroke-width="1.35" stroke-linecap="round" opacity="0.72"/>
    <path d="M80 78.2L80 86" stroke="#7A5C3D" stroke-width="1.25" stroke-linecap="round" opacity="0.6"/>
  </g>
</svg>
