<svg xmlns="http://www.w3.org/2000/svg" viewBox="0 0 24 24" fill="none">
  <rect x="1" y="1" width="22" height="22" rx="7" fill="#ffffff" />
  <rect x="1" y="1" width="22" height="22" rx="7" stroke="#e4e4e7" />

  <g transform="translate(2.5 2.5) scale(0.79)" stroke="#3f3f46" stroke-width="1.9" stroke-linecap="round" stroke-linejoin="round">
    <path d="M9.937 15.5A2 2 0 0 0 8.5 14.063l-6.135-1.582a.5.5 0 0 1 0-.962L8.5 9.936A2 2 0 0 0 9.937 8.5l1.582-6.135a.5.5 0 0 1 .963 0L14.063 8.5A2 2 0 0 0 15.5 9.937l6.135 1.581a.5.5 0 0 1 0 .964L15.5 14.063a2 2 0 0 0-1.437 1.437l-1.582 6.135a.5.5 0 0 1-.963 0z" />
    <path d="M20 3v4" />
    <path d="M22 5h-4" />
    <path d="M4 17v2" />
    <path d="M5 18H3" />
  </g>

  <circle cx="20.8" cy="3.2" r="1.9" fill="#ffffff" />
  <circle cx="20.8" cy="3.2" r="1.25" fill="#18181b" />
</svg>
